<svg enable-background="new 0 0 1301 271" height="271" viewBox="0 0 1301 271" width="1301" xmlns="http://www.w3.org/2000/svg"><g transform="matrix(1.25 0 0 1.25 -11.50661625 751.7655375)"><path d="m86.189-572.328c-3.666 6.584-14.83 18.242-26.58 24.992.368-2.473 2.827-9.863 2.827-9.863l8.502-10.129-5.584.584s3.166-9.752 4.5-11.752 13.584-1.084 13.584-1.084 6.417.668 2.751 7.252zm-49.25 5.666c-1.084-.084-6.084-1.25-.416-3.916 5.666-2.666 28.25-6.834 28.25-6.834s-.416 3.51-3.084 10.834c-13.5 1.75-23.666 0-24.75-.084zm51.134-17.843c-14.354.495-47.269 8.043-60.262 12.993-12.992 4.95-9.775 11.631-1.609 13.982 8.166 2.352 32.249 2.011 32.249 2.011-.89 5.248-9.514 24.357-10.43 26.107s-.334 3.084-.334 3.084 1.226 1.71 3 .5c35-23.917 46.912-40.982 46.912-40.982 6.436-8.662 4.828-18.19-9.526-17.695z"/><path d="m102.426-555.64c2.32-2.141 3.902-1.088 3.902-1.088.605.414.949 1.289-.034 2.539-1.136 1.448-5.591 1.475-5.591 1.475s.441-1.605 1.723-2.926zm-6.487 8.062s13.667 1.5 17.084-8c1.083-5.666-4.167-5.916-4.167-5.916-.75-.25-10.166-.667-14.29 7.941 0 0-4.627 6.975-7.543 17.891-1.417 5.917 4.916 6.334 4.916 6.334 6.105.984 18.988-8.773 20.88-13.816-.445-1.741-7.255 5.995-15.531 3.677-3.97-1.53-3.45-4.155-3.45-4.155s.182-1.016 2.101-3.956z"/><path d="m273.009-555.71c2.321-2.141 3.903-1.087 3.903-1.087.605.414.948 1.29-.034 2.54-1.136 1.447-5.591 1.475-5.591 1.475s.44-1.605 1.722-2.928zm-6.486 8.063s13.666 1.5 17.084-8c1.083-5.667-4.167-5.917-4.167-5.917-.75-.25-10.166-.666-14.288 7.943 0 0-4.627 6.975-7.545 17.891-1.417 5.918 4.916 6.334 4.916 6.334 6.104.984 18.987-8.773 20.88-13.817-.445-1.74-7.254 5.995-15.531 3.678-3.97-1.531-3.45-4.156-3.45-4.156s.181-1.016 2.101-3.956z"/><path d="m621.131-555.362c2.322-2.141 3.904-1.087 3.904-1.087.605.414.949 1.289-.034 2.539-1.136 1.448-5.591 1.476-5.591 1.476s.439-1.607 1.721-2.928zm-6.485 8.06s13.666 1.502 17.084-8c1.083-5.666-4.167-5.916-4.167-5.916-.75-.25-10.166-.666-14.289 7.941 0 0-4.627 6.975-7.544 17.891-1.417 5.917 4.916 6.334 4.916 6.334 6.104.984 18.988-8.773 20.879-13.816-.444-1.741-7.254 5.995-15.53 3.678-3.97-1.53-3.449-4.155-3.449-4.155s.181-1.015 2.1-3.957z"/><path d="m134.426-537.115s-8.114 5.713-10.628 7.086c-2.515 1.37-6.4.798-6.4.798s-2.172-.801-1.6-4.229c.571-3.427 2.514-8.228 2.514-8.228s3.086-6.398 1.371-10.741c-1.488-3.314.226-3.564 2.055-4.457 1.488-.571 3.546-1.243 6.516-2.743 0 0 1.6-1.028 2.398 0 .8 1.029-.8 2.629-.8 2.629-1.598 2.514-3.312 7.198-6.284 12-2.4 5.028 2.057 6.171 2.057 6.171s4.544.245 9.229-1.241c3.228-2.074 4.598-13.045 4.598-13.045s-.114-2.971 3.428-4.457c0 0 4.115-1.714 5.029-2.4.916-.686 2.063-.441 2.514 0 .8 1.027-.085 2.087-.686 2.627-1.6 1.371-5.485 6.745-7.199 11.086-2.515 4.57-1.029 5.371-1.029 5.371 1.029 1.714 2.743 1.714 2.743 1.714s6.059.115 10.057-1.257c3.999-1.372-8.684 8.572-10.514 9.828-1.6 1.942-6.514 1.257-6.857 1.257s-2.17-.456-2.286-3.312c-.113-2.857-.226-4.457-.226-4.457z"/><path d="m132.026-575.285s22.17-.571 25.713.457c3.545 1.028-17.941 8-25.141 8.686-4.914.686-2.743-3.886-2.743-3.886z"/><path d="m200.409-547.602c5.363-8.894 14.445 1.606 17.863-7.894 2.446-4.394-2.584-4.584-2.584-4.584-.75-.25-13.25-1.084-16.652 6.502 0 0-4.627 6.975-7.543 17.891-1.417 5.919 4.916 6.334 4.916 6.334 6.104.984 17.637-9.684 19.53-14.727-.445-1.741-5.402 4.912-14.166 3.916-3.833-.916-3.333-3.666-2.177-5.75-.001.002-.133.372.813-1.688z"/><path d="m162.521-553.995s-7.168.363-7.668-.387 10.835-4.696 18.752-13.613c2.416-2.667-2.084 7.083-1.834 9.666 5.584.5 7.667-.916 9-.584 1.334.334-1.572 3.975-1.572 3.975-.595.941-4.345.691-4.345.691-1.166 0-5 0-5 0s-3.084 4.833-4.166 11.333c0 0-.917 3.75 2.166 4 4.166.417 6.334-1.75 8-1.083.5 1-6.848 7.066-10.416 9.583-2.667 1.917-5.167 1.25-5.167 1.25s-4.25-.333-3.083-7c1.167-6.164 5.333-17.831 5.333-17.831z"/><path d="m182.891-547.434c1.779-3.762 8.381-30.145 27.214-35.645 12.167-3 11.584-1.417 11.584-1.417s.584 8.75-8.75 10.167c-9.084 1.916-16.916 5.5-28.166 33.75-11.25 28.248-24.834 40.832-33.251 43.416-8.416 2.583-9-4.833-9-4.833s-1.51-5.742 7.416-7c11.833-1.666 29.081-24.496 32.953-38.438z"/><path d="m216.523-533.828s9.25-15.334 10.166-34.167c1.416-8.666 4.584-9.833 6.834-10.25 2.25-.416 6.333-1 8.748-.5 2.834 1-10.998 18.584-13.666 29.25 0 0 11.416-8 18.084-8.666 5.416-.584 4.249 3.334 3.166 5.75-1.084 2.416-3.084 4.083-5.5 8.416 0 0-1.75 3.75 1.584 3.834 3.834-.084 7.916-.584 9.584-.25 1.666.334-5.416 6.666-13.334 10.75-2.77 1.318-4.75.5-4.75.5s-3.25-1.916-1.084-6.166l4-9.166s1.834-4.5-3.25-2.666c-4.584 1.75-9.834 2.666-13.416 9.666 0 0-2.177 4.909-2.666 6.166-.491 1.259-1.167 2.834-3.584 2-3.084-1.251-1.733-3.044-.916-4.501z"/><path d="m716.509-537.185s-8.114 5.713-10.628 7.084c-2.515 1.37-6.4.801-6.4.801s-2.172-.801-1.6-4.229c.57-3.427 2.514-8.228 2.514-8.228s3.086-6.4 1.371-10.743c-1.487-3.314.227-3.564 2.058-4.457 1.484-.571 3.544-1.243 6.514-2.743 0 0 1.6-1.029 2.4 0 .798 1.028-.8 2.629-.8 2.629-1.6 2.514-3.316 7.2-6.285 12-2.401 5.029 2.056 6.172 2.056 6.172s4.543.245 9.229-1.241c3.228-2.074 4.598-13.045 4.598-13.045s-.114-2.971 3.431-4.457c0 0 4.112-1.714 5.028-2.4s2.062-.44 2.515 0c.798 1.029-.086 2.087-.688 2.629-1.6 1.371-5.485 6.743-7.2 11.085-2.514 4.572-1.027 5.373-1.027 5.373 1.027 1.713 2.741 1.713 2.741 1.713s6.059.115 10.058-1.256c4-1.373-8.687 8.57-10.514 9.828-1.6 1.941-6.516 1.256-6.855 1.256-.345 0-2.173-.456-2.287-3.312-.117-2.859-.229-4.459-.229-4.459z"/><path d="m714.107-575.356s22.171-.571 25.714.457-17.942 8-25.142 8.686c-4.912.686-2.741-3.886-2.741-3.886z"/><path d="m284.516-536.429s7.279-6.359 7.202-18.311c-.077-1.838-2.68-2.068-2.987-2.912.298-1.158 9.566-4.887 10.879-4.137 2.069 1.379-3.295 8.121-2.911 11.492.536 1.072 9.423-8.581 14.93-10.323 8.427-3.37 6.905.977 6.905.977s-.995 3.907-3.984 7.202c-1.685 2.528-4.827 2.222-4.827 2.222s-7.891-.612-11.798 3.141c-2.069 1.609-5.055 7.048-4.903 10.19-.112 1.672-1.302 9.423-7.815 7.278-5.287-1.61-.691-6.819-.691-6.819z"/><path d="m375.73-568.078c-5 4-20.625 9.5-20.875 8.125s7.75-18.875 8.75-19.375 9.125-.25 11.625 1 6.25 5.125.5 10.25zm6.327-12.846c-20.688-5.172-42.637-.757-42.637-.757s-7.568 1.388-7.316 3.532c-.252.757 0 3.153 4.541 2.523 8.83-2.271 20.309-4.793 20.182-3.784s-5.423 12.741-7.694 18.039-5.803 4.919-5.803 4.919-.505 0-8.199.631c-7.695.631-5.423 6.182-4.288 10.218 1.134 4.038 3.911 2.902 6.812 1.892 3.658-1.388 4.163 0 2.271 2.775-2.842 3.35-6.181 9.712-6.181 9.712s-1.641 4.289 2.775 3.911c6.812.253 7.316-4.162 7.316-4.162l4.163-12.236s.505-2.902 5.172-4.541c18.543-7.19 30.401-20.561 30.401-20.561s7.694-9.336-1.515-12.111z"/><path d="m378.855-548.328c1.25 1.375-13.75 34-34.75 39.624-5.875.75-5.172 3.234-5.25 5.125-.079 1.891-.375 7 5.875 6 7.25-1.25 21.623-3.473 37.998-48.474 1.127-3.9 3.877-4.025 3.877-4.025 1.878-.035 11.49-.625 13.625-2.875 0 0 6.5-5.25 4.625-7.125s-16.895 5.118-17.125 3.125c.375-3.875 5.31-10.494 5.31-10.494 2.323-3.109 3.815-3.506 5.565-3.506l7.375.125c1.875.125 3.226-1.076 4.5-3.25 1.273-2.174 5.5-7.375-1.75-7.625s-18.125 7.75-21.875 17.125c-6.625 15-21.625 12.875-23.721 17.471.096 1.904 9.057-.722 15.721-1.221z"/><path d="m485.578-546.96c1.25 1.375-13.75 34-34.75 39.625-5.875.75-5.172 3.234-5.25 5.125-.077 1.891-.375 7 5.875 6 7.25-1.25 21.625-3.475 38-48.475 1.125-3.9 3.875-4.025 3.875-4.025 1.88-.036 11.491-.625 13.625-2.875 0 0 6.502-5.25 4.627-7.125s-16.895 5.118-17.127 3.125c.375-3.875 5.312-10.494 5.312-10.494 2.322-3.109 3.812-3.506 5.562-3.506l7.377.125c1.875.125 3.226-1.076 4.5-3.25 1.275-2.174 5.5-7.375-1.75-7.625s-18.127 7.75-21.877 17.125c-6.625 15-21.625 12.875-23.72 17.472.096 1.903 9.059-.722 15.721-1.222z"/><path d="m406.271-540.287s-3.5.666-4.302-1.18c-.864-1.402 1.47-3.735 1.47-3.735 9.25-9.916 21.416-8.584 21.416-8.584-4.666 13.333-18.584 13.499-18.584 13.499zm28.25-.334c-.75-.584-1.833.834-7.333.667-5.417-.917-2.5-6.417-2.5-6.417 2.166-6.583 10.929-12.08 9.096-12.413-22.584-4-38.596 18.913-38.596 18.913-6.167 8.5-.676 10.182-.676 10.182s4.759 2.152 12.591-4.098c7.084-4.916 10.25-5.666 10.5-5.166s-1.334 3.916-1.334 3.916-1.75 2.666.834 4.916 6.25 0 6.25 0c4.918-2.583 11.918-9.916 11.168-10.5z"/><path d="m459.703-545.952c-5.266 6.73-9.604 5.963-11.468 5.888-1.865-.073-7.607-.599-3.628-7.21 2.34-4.688 7.022-4.929 7.022-4.929s13.574-1.08 8.074 6.251zm7.657 5.049c-5.89 1.922-4.927-2.523-3.966-5.409 6.37-16.586 23.916-29.205 20.913-31.49-18.27-3.605-17.958 20.323-20.482 19.482-26.994-6.261-26.033 24.75-26.033 24.75s-.721 3.484 4.207 4.326c4.927.841 13.582-9.375 15.264-8.894-.241 2.523-1.923 12.861 5.889 6.25 3.845-2.643 11.058-9.495 10.337-9.977-.719-.481-6.129.962-6.129.962z"/><path d="m590.757-546.198c-5.266 6.731-9.604 5.962-11.468 5.891-1.865-.074-7.607-.602-3.628-7.213 2.341-4.687 7.022-4.928 7.022-4.928s13.576-1.081 8.074 6.25zm7.657 5.049c-5.89 1.923-4.927-2.523-3.966-5.408 6.37-16.587 23.916-29.207 20.912-31.491-18.27-3.605-17.958 20.323-20.481 19.482-26.995-6.261-26.034 24.748-26.034 24.748s-.721 3.487 4.207 4.327c4.927.842 13.582-9.375 15.264-8.891-.241 2.523-1.923 12.859 5.889 6.25 3.845-2.645 11.058-9.498 10.337-9.977-.718-.484-6.128.96-6.128.96z"/><path d="m800.55-545.975c-5.266 6.73-9.604 5.962-11.468 5.889-1.866-.073-7.608-.599-3.627-7.21 2.34-4.688 7.02-4.929 7.02-4.929s13.575-1.081 8.075 6.25zm7.657 5.048c-5.89 1.923-4.927-2.523-3.966-5.409 6.37-16.587 23.916-29.207 20.913-31.491-18.27-3.606-17.959 20.323-20.481 19.48-26.995-6.261-26.034 24.75-26.034 24.75s-.719 3.484 4.208 4.327c4.927.841 13.581-9.375 15.264-8.895-.241 2.523-1.923 12.861 5.889 6.25 3.845-2.643 11.058-9.495 10.338-9.977-.722-.478-6.131.965-6.131.965z"/><path d="m632.859-536.331s7.279-6.359 7.202-18.311c-.077-1.839-2.68-2.068-2.987-2.911.298-1.158 9.566-4.887 10.879-4.137 2.068 1.379-3.294 8.12-2.912 11.491.537 1.073 9.424-8.58 14.931-10.322 8.427-3.371 6.904.975 6.904.975s-.996 3.907-3.984 7.202c-1.685 2.528-4.826 2.223-4.826 2.223s-7.893-.612-11.799 3.141c-2.068 1.609-5.056 7.048-4.903 10.191-.112 1.672-1.303 9.423-7.816 7.277-5.285-1.609-.689-6.819-.689-6.819z"/><path d="m510.105-536.141c2.215-4.552 6.224-13.77 5.987-19.135-.862-1.615 6.763-3.615 9.263-3.24s-4.875 10.75-7.125 14.75c-1.289 2.873-2.5 4.875.75 4.625 3.375 0 8-1.625 8.5-.75s-3.375 6.375-10.5 9.625-9.089-1.324-6.875-5.875z"/><path d="m523.789-566.938c-.434-1.706.927-3.525 3.042-4.062 2.113-.538 4.179.41 4.612 2.116.434 1.706-.927 3.525-3.041 4.062-2.113.538-4.179-.41-4.613-2.116z"/><path d="m737.339-534.673s7.875-6.75 6.875-15.626c0 0-.109-3.072-2.869-4.704-.625-2.125 11.5-3.375 13.125-3s-5.006 8.454-4.131 9.579 12.875-9.375 17.75-10.25 8 1.375 4.25 7.375-10 13.751.648 12.522c4.923-.68-5.273 8.229-7.648 8.854-1.319.456-10.5 3.625-4.625-8.125 2.75-4.25 3-6.125 3-6.125s1.25-6.501-6.5-3.876c-6 2-7.375 5.376-7.375 5.376l-6 10.25c-1.548 2.409-2 3.875-5.125 3.5-4.375-.125-4.375-3.25-1.375-5.75z"/><path d="m528.886-534.75s7.875-6.75 6.875-15.627c0 0-.109-3.072-2.868-4.704-.625-2.125 11.5-3.375 13.125-3s-5.007 8.454-4.132 9.579 12.875-9.375 17.75-10.25 8 1.375 4.25 7.375-10 13.752.648 12.523c4.923-.68-5.273 8.229-7.648 8.854-1.319.457-10.5 3.625-4.625-8.125 2.75-4.25 3-6.125 3-6.125s1.25-6.502-6.5-3.877c-6 2-7.375 5.377-7.375 5.377l-6 10.25c-1.548 2.41-2 3.875-5.125 3.5-4.375-.125-4.375-3.25-1.375-5.75z"/><path d="m676.366-538.931c-7.373-.08-5.549-6.423-5.549-6.423s.872-3.33 5.074-3.727c6.184-.873 13.559 0 13.876 1.11.315 1.111-3.094 9.119-13.401 9.04zm15.779-17.919c-3.964-.714-15.145 2.775-16.175 1.745-1.031-1.03 16.175-24.183 12.448-24.42-2.776-.317-7.612 1.744-7.612 1.744-3.251 1.427-4.202 3.885-5.074 6.264-.872 2.378-12.052 33.617-12.052 33.617-2.645 7.398 4.202 8.802 4.202 8.802s3.236.873 8.959-1.823c10.229-5.708 12.765-9.277 16.966-14.431 4.204-5.156 1.034-11.102-1.662-11.498z"/></g><path d="m1290.824 135.183c.009-41.927.009-83.857.009-125.787-58.223-.009-116.45-.009-174.68-.009-.011 83.85-.011 167.708-.02 251.571 58.229 0 116.46.007 174.688.007.003-41.928.003-83.86.003-125.782zm-121.953 26.773c1.905-.012 3.143-.062 7.364-.062-.019-1.751-.043-3.263-.153-4.738-.995-13.062-16.603-16.309-17.004-.485.094 2.529.032 5.062.196 7.595.566 7.912 3.449 20.093-.558 23.104-17.847-26.066-20.729-30.229-34.669-50.596 16.479-24.037 17.029-24.857 37.089-54.146 25.226 19.037 28.224 61.664 28.83 79.327 1.728-.025 2.911-.066 5.416-.055.062-31.771-6.643-63.854-28.547-87.581 18.496-27.021 19.318-28.195 37.217-54.249 87.714 2.02 85.567 58.667 82.46 117.396-4.109 95.181-13.424 116.133-82.478 115.97-11.819-17.303-13.732-20.093-18.97-27.621 5.363-15.475 10.291-31.802 10.53-48.805-2.008 0-3.448-.021-5.433-.007-2.085 13.361-5.253 27.476-11.295 39.766-4.532-6.591-5.408-7.845-8.275-12.06 2.757-8.938 6.352-18.919 6.258-27.699-3.158 0-6.66 0-7.88-.021m7.678 31.335c5.863-13.895 6.851-20.318 7.621-31.297-2.042-.043-3.104-.036-4.897-.036-.93 9.255-1.443 18.014-5.924 26.661 1.362 1.983 2.001 2.92 3.2 4.672zm-19.449-37.785c-.034-7.386-3.125-15.619.487-22.584 5.521-10.011 19.229-4.606 21.057 7.253.722 3.684.764 5.015.866 6.766 1.819-.021 3.562-.021 5.827-.035-.052-1.554.026-5.381-.627-8.302-1.363-9.521-7.827-20.693-15.415-26.808-16.258-12.254-28.692 5.117-26.11 19.257 1.982 10.04 8.456 15.682 11.435 30.4 1.151 3.175 2.36 2.916 2.489-.778.067-1.751.087-3.427-.009-5.169z"/><path d="m1120.488 10.493c58.229 0 113.266-1.062 171.492-1.071 0 83.857.012 167.721.021 251.578-58.229 0-114.683-1.058-172.911-1.058 4.505-69.892-.327-188.258 1.398-249.449zm118.777 151.505c-1.906-.009-3.142-.062-7.363-.062.018-1.759.041-3.271.151-4.746.996-13.057 16.604-16.309 17.005-.479-.094 2.531-.034 5.056-.197 7.589-.565 7.912-3.459 20.1.56 23.104 17.837-26.06 20.729-30.229 34.659-50.599-16.479-24.034-17.021-24.852-37.089-54.146-25.22 19.052-28.214 61.673-28.823 79.329-1.727-.018-2.909-.062-5.414-.046-.062-31.784 6.634-63.854 28.539-87.581-18.488-27.028-19.313-28.195-37.209-54.247-135.257 46.721-88.314 165.949.018 233.362 11.819-17.312 13.733-20.102 18.971-27.629-5.365-15.479-10.293-31.794-10.532-48.797 2.008 0 3.448-.021 5.434-.021 2.085 13.363 5.252 27.487 11.295 39.777 4.532-6.604 5.408-7.846 8.275-12.062-2.765-8.941-6.354-18.916-6.258-27.695 3.159 0 6.661-.009 7.88-.021m-35.079 71.333c0-40.715.011-43.937-.007-71.342 1.098 0 4.154-.01 5.562-.01.682 17.062 4.446 32.734 9.847 48.863zm27.398-39.996c-5.86-13.895-6.855-20.323-7.631-31.296 2.054-.042 3.116-.042 4.909-.035.929 9.256 1.442 18 5.924 26.661-1.364 1.974-2 2.92-3.202 4.67zm19.45-37.783c.033-7.383 3.125-15.633-.487-22.583-5.521-10.019-19.229-4.607-21.058 7.242-.722 3.686-.763 5.017-.867 6.773-1.817-.025-3.562-.021-5.824-.043.042-1.554-.036-5.375.626-8.294 1.362-9.518 7.828-20.7 15.415-26.812 16.258-12.259 28.686 5.123 26.11 19.253-1.982 10.055-8.456 15.69-11.441 30.409-1.145 3.168-2.354 2.91-2.481-.776-.068-1.764-.087-3.437.007-5.169zm-77.945 2.652c0-1.81.024-4.431.044-7.365 16.778-.06 44.734-.172 62.441-.129 0 2.584 0 4.884.011 7.544-17.518-.221-44.976-.202-62.496-.05zm31.097-11.255c.011-31.208.018-88.534 0-135.981 10.739 16.335 22.206 31.747 32.748 48.307-22.646 26.121-25.701 53.396-27.329 87.695-2.208-.002-3.041-.01-5.419-.021z"/></svg>