<?xml version="1.0" encoding="utf-8"?>
<!-- Generator: Adobe Illustrator 15.0.0, SVG Export Plug-In . SVG Version: 6.00 Build 0)  -->
<!DOCTYPE svg PUBLIC "-//W3C//DTD SVG 1.1//EN" "http://www.w3.org/Graphics/SVG/1.1/DTD/svg11.dtd">
<svg version="1.1"
	 id="svg2985" sodipodi:docname="Schriftzug-DPB.svg" inkscape:version="0.48.1 " xmlns:cc="http://creativecommons.org/ns#" xmlns:sodipodi="http://sodipodi.sourceforge.net/DTD/sodipodi-0.dtd" xmlns:inkscape="http://www.inkscape.org/namespaces/inkscape" xmlns:svg="http://www.w3.org/2000/svg" xmlns:dc="http://purl.org/dc/elements/1.1/" xmlns:rdf="http://www.w3.org/1999/02/22-rdf-syntax-ns#"
	 xmlns="http://www.w3.org/2000/svg" xmlns:xlink="http://www.w3.org/1999/xlink" x="0px" y="0px" width="1301px" height="271px"
	 viewBox="0 0 1301 271" enable-background="new 0 0 1301 271" xml:space="preserve">
<sodipodi:namedview  inkscape:cy="294.70835" id="namedview2987" objecttolerance="10" gridtolerance="10" inkscape:pageshadow="2" guidetolerance="10" inkscape:window-x="1359" inkscape:pageopacity="0" inkscape:zoom="0.78215874" inkscape:window-width="1919" borderopacity="1" pagecolor="#ffffff" inkscape:window-height="1018" bordercolor="#666666" showgrid="false" inkscape:window-maximized="1" inkscape:cx="946.55098" inkscape:current-layer="g2993" inkscape:window-y="-8">
	</sodipodi:namedview>
<g id="g2993" transform="matrix(1.25,0,0,-1.25,0,744.09446)" inkscape:groupmode="layer" inkscape:label="Schriftzug-dpb">
	
		<g id="g2995" transform="matrix(1,0,0,-1,-9.2052926,-6.1368617)" inkscape:export-xdpi="28.368443" inkscape:export-ydpi="28.368443">
		<path id="path2997" inkscape:connector-curvature="0" d="M86.189-572.328c-3.666,6.584-14.83,18.242-26.58,24.992
			c0.368-2.473,2.827-9.863,2.827-9.863l8.502-10.129l-5.584,0.584c0,0,3.166-9.752,4.5-11.752c1.334-2,13.584-1.084,13.584-1.084
			S89.855-578.912,86.189-572.328z M36.939-566.662c-1.084-0.084-6.084-1.25-0.416-3.916c5.666-2.666,28.25-6.834,28.25-6.834
			s-0.416,3.51-3.084,10.834C48.189-564.828,38.023-566.578,36.939-566.662z M88.073-584.505
			c-14.354,0.495-47.269,8.043-60.262,12.993c-12.992,4.95-9.775,11.631-1.609,13.982c8.166,2.352,32.249,2.011,32.249,2.011
			c-0.89,5.248-9.514,24.357-10.43,26.107c-0.916,1.75-0.334,3.084-0.334,3.084s1.226,1.71,3,0.5
			c35-23.917,46.912-40.982,46.912-40.982C104.035-575.472,102.427-585,88.073-584.505z"/>
		<path id="path2999" inkscape:connector-curvature="0" d="M102.426-555.64c2.32-2.141,3.902-1.088,3.902-1.088
			c0.605,0.414,0.949,1.289-0.034,2.539c-1.136,1.448-5.591,1.475-5.591,1.475S101.144-554.319,102.426-555.64L102.426-555.64z
			 M95.939-547.578c0,0,13.667,1.5,17.084-8c1.083-5.666-4.167-5.916-4.167-5.916c-0.75-0.25-10.166-0.667-14.29,7.941
			c0,0-4.627,6.975-7.543,17.891c-1.417,5.917,4.916,6.334,4.916,6.334c6.105,0.984,18.988-8.773,20.88-13.816
			c-0.445-1.741-7.255,5.995-15.531,3.677c-3.97-1.53-3.45-4.155-3.45-4.155S94.02-544.638,95.939-547.578z"/>
		<path id="path3001" inkscape:connector-curvature="0" d="M273.009-555.71c2.321-2.141,3.903-1.087,3.903-1.087
			c0.605,0.414,0.948,1.29-0.034,2.54c-1.136,1.447-5.591,1.475-5.591,1.475S271.727-554.387,273.009-555.71L273.009-555.71z
			 M266.523-547.647c0,0,13.666,1.5,17.084-8c1.083-5.667-4.167-5.917-4.167-5.917c-0.75-0.25-10.166-0.666-14.288,7.943
			c0,0-4.627,6.975-7.545,17.891c-1.417,5.918,4.916,6.334,4.916,6.334c6.104,0.984,18.987-8.773,20.88-13.817
			c-0.445-1.74-7.254,5.995-15.531,3.678c-3.97-1.531-3.45-4.156-3.45-4.156S264.603-544.707,266.523-547.647z"/>
		<path id="path3003" inkscape:connector-curvature="0" d="M621.131-555.362c2.322-2.141,3.904-1.087,3.904-1.087
			c0.605,0.414,0.949,1.289-0.034,2.539c-1.136,1.448-5.591,1.476-5.591,1.476S619.849-554.041,621.131-555.362z M614.646-547.302
			c0,0,13.666,1.502,17.084-8c1.083-5.666-4.167-5.916-4.167-5.916c-0.75-0.25-10.166-0.666-14.289,7.941
			c0,0-4.627,6.975-7.544,17.891c-1.417,5.917,4.916,6.334,4.916,6.334c6.104,0.984,18.988-8.773,20.879-13.816
			c-0.444-1.741-7.254,5.995-15.53,3.678c-3.97-1.53-3.449-4.155-3.449-4.155S612.727-544.36,614.646-547.302z"/>
		<path id="path3005" inkscape:connector-curvature="0" d="M134.426-537.115c0,0-8.114,5.713-10.628,7.086
			c-2.515,1.37-6.4,0.798-6.4,0.798s-2.172-0.801-1.6-4.229c0.571-3.427,2.514-8.228,2.514-8.228s3.086-6.398,1.371-10.741
			c-1.488-3.314,0.226-3.564,2.055-4.457c1.488-0.571,3.546-1.243,6.516-2.743c0,0,1.6-1.028,2.398,0c0.8,1.029-0.8,2.629-0.8,2.629
			c-1.598,2.514-3.312,7.198-6.284,12c-2.4,5.028,2.057,6.171,2.057,6.171s4.544,0.245,9.229-1.241
			c3.228-2.074,4.598-13.045,4.598-13.045s-0.114-2.971,3.428-4.457c0,0,4.115-1.714,5.029-2.4c0.916-0.686,2.063-0.441,2.514,0
			c0.8,1.027-0.085,2.087-0.686,2.627c-1.6,1.371-5.485,6.745-7.199,11.086c-2.515,4.57-1.029,5.371-1.029,5.371
			c1.029,1.714,2.743,1.714,2.743,1.714s6.059,0.115,10.057-1.257c3.999-1.372-8.684,8.572-10.514,9.828
			c-1.6,1.942-6.514,1.257-6.857,1.257s-2.17-0.456-2.286-3.312C134.539-535.515,134.426-537.115,134.426-537.115z"/>
		<path id="path3007" inkscape:connector-curvature="0" d="M132.026-575.285c0,0,22.17-0.571,25.713,0.457
			c3.545,1.028-17.941,8-25.141,8.686c-4.914,0.686-2.743-3.886-2.743-3.886L132.026-575.285z"/>
		<path id="path3009" inkscape:connector-curvature="0" d="M200.409-547.602c5.363-8.894,14.445,1.606,17.863-7.894
			c2.446-4.394-2.584-4.584-2.584-4.584c-0.75-0.25-13.25-1.084-16.652,6.502c0,0-4.627,6.975-7.543,17.891
			c-1.417,5.919,4.916,6.334,4.916,6.334c6.104,0.984,17.637-9.684,19.53-14.727c-0.445-1.741-5.402,4.912-14.166,3.916
			c-3.833-0.916-3.333-3.666-2.177-5.75C199.595-545.912,199.463-545.542,200.409-547.602z"/>
		<path id="path3011" inkscape:connector-curvature="0" d="M162.521-553.995c0,0-7.168,0.363-7.668-0.387
			s10.835-4.696,18.752-13.613c2.416-2.667-2.084,7.083-1.834,9.666c5.584,0.5,7.667-0.916,9-0.584
			c1.334,0.334-1.572,3.975-1.572,3.975c-0.595,0.941-4.345,0.691-4.345,0.691c-1.166,0-5,0-5,0s-3.084,4.833-4.166,11.333
			c0,0-0.917,3.75,2.166,4c4.166,0.417,6.334-1.75,8-1.083c0.5,1-6.848,7.066-10.416,9.583c-2.667,1.917-5.167,1.25-5.167,1.25
			s-4.25-0.333-3.083-7C158.355-542.328,162.521-553.995,162.521-553.995z"/>
		<path id="path3013" inkscape:connector-curvature="0" d="M182.891-547.434c1.779-3.762,8.381-30.145,27.214-35.645
			c12.167-3,11.584-1.417,11.584-1.417s0.584,8.75-8.75,10.167c-9.084,1.916-16.916,5.5-28.166,33.75
			c-11.25,28.248-24.834,40.832-33.251,43.416c-8.416,2.583-9-4.833-9-4.833s-1.51-5.742,7.416-7
			C161.771-510.662,179.019-533.492,182.891-547.434z"/>
		<path id="path3015" inkscape:connector-curvature="0" d="M216.523-533.828c0,0,9.25-15.334,10.166-34.167
			c1.416-8.666,4.584-9.833,6.834-10.25c2.25-0.416,6.333-1,8.748-0.5c2.834,1-10.998,18.584-13.666,29.25
			c0,0,11.416-8,18.084-8.666c5.416-0.584,4.249,3.334,3.166,5.75c-1.084,2.416-3.084,4.083-5.5,8.416c0,0-1.75,3.75,1.584,3.834
			c3.834-0.084,7.916-0.584,9.584-0.25c1.666,0.334-5.416,6.666-13.334,10.75c-2.77,1.318-4.75,0.5-4.75,0.5
			s-3.25-1.916-1.084-6.166l4-9.166c0,0,1.834-4.5-3.25-2.666c-4.584,1.75-9.834,2.666-13.416,9.666c0,0-2.177,4.909-2.666,6.166
			c-0.491,1.259-1.167,2.834-3.584,2C214.355-530.578,215.706-532.371,216.523-533.828z"/>
		<path id="path3017" inkscape:connector-curvature="0" d="M716.509-537.185c0,0-8.114,5.713-10.628,7.084
			c-2.515,1.37-6.4,0.801-6.4,0.801s-2.172-0.801-1.6-4.229c0.57-3.427,2.514-8.228,2.514-8.228s3.086-6.4,1.371-10.743
			c-1.487-3.314,0.227-3.564,2.058-4.457c1.484-0.571,3.544-1.243,6.514-2.743c0,0,1.6-1.029,2.4,0c0.798,1.028-0.8,2.629-0.8,2.629
			c-1.6,2.514-3.316,7.2-6.285,12c-2.401,5.029,2.056,6.172,2.056,6.172s4.543,0.245,9.229-1.241
			c3.228-2.074,4.598-13.045,4.598-13.045s-0.114-2.971,3.431-4.457c0,0,4.112-1.714,5.028-2.4c0.916-0.686,2.062-0.44,2.515,0
			c0.798,1.029-0.086,2.087-0.688,2.629c-1.6,1.371-5.485,6.743-7.2,11.085c-2.514,4.572-1.027,5.373-1.027,5.373
			c1.027,1.713,2.741,1.713,2.741,1.713s6.059,0.115,10.058-1.256c4-1.373-8.687,8.57-10.514,9.828
			c-1.6,1.941-6.516,1.256-6.855,1.256c-0.345,0-2.173-0.456-2.287-3.312C716.621-535.585,716.509-537.185,716.509-537.185z"/>
		<path id="path3019" inkscape:connector-curvature="0" d="M714.107-575.356c0,0,22.171-0.571,25.714,0.457s-17.942,8-25.142,8.686
			c-4.912,0.686-2.741-3.886-2.741-3.886L714.107-575.356z"/>
		<path id="path3021" inkscape:connector-curvature="0" d="M284.516-536.429c0,0,7.279-6.359,7.202-18.311
			c-0.077-1.838-2.68-2.068-2.987-2.912c0.298-1.158,9.566-4.887,10.879-4.137c2.069,1.379-3.295,8.121-2.911,11.492
			c0.536,1.072,9.423-8.581,14.93-10.323c8.427-3.37,6.905,0.977,6.905,0.977s-0.995,3.907-3.984,7.202
			c-1.685,2.528-4.827,2.222-4.827,2.222s-7.891-0.612-11.798,3.141c-2.069,1.609-5.055,7.048-4.903,10.19
			c-0.112,1.672-1.302,9.423-7.815,7.278C279.92-531.22,284.516-536.429,284.516-536.429z"/>
		<path id="path3023" inkscape:connector-curvature="0" d="M375.73-568.078c-5,4-20.625,9.5-20.875,8.125s7.75-18.875,8.75-19.375
			s9.125-0.25,11.625,1S381.48-573.203,375.73-568.078z M382.057-580.924c-20.688-5.172-42.637-0.757-42.637-0.757
			s-7.568,1.388-7.316,3.532c-0.252,0.757,0,3.153,4.541,2.523c8.83-2.271,20.309-4.793,20.182-3.784
			c-0.127,1.009-5.423,12.741-7.694,18.039c-2.271,5.298-5.803,4.919-5.803,4.919s-0.505,0-8.199,0.631
			c-7.695,0.631-5.423,6.182-4.288,10.218c1.134,4.038,3.911,2.902,6.812,1.892c3.658-1.388,4.163,0,2.271,2.775
			c-2.842,3.35-6.181,9.712-6.181,9.712s-1.641,4.289,2.775,3.911c6.812,0.253,7.316-4.162,7.316-4.162l4.163-12.236
			c0,0,0.505-2.902,5.172-4.541c18.543-7.19,30.401-20.561,30.401-20.561S391.266-578.149,382.057-580.924z"/>
		<path id="path3025" inkscape:connector-curvature="0" d="M378.855-548.328c1.25,1.375-13.75,34-34.75,39.624
			c-5.875,0.75-5.172,3.234-5.25,5.125c-0.079,1.891-0.375,7,5.875,6c7.25-1.25,21.623-3.473,37.998-48.474
			c1.127-3.9,3.877-4.025,3.877-4.025c1.878-0.035,11.49-0.625,13.625-2.875c0,0,6.5-5.25,4.625-7.125s-16.895,5.118-17.125,3.125
			c0.375-3.875,5.31-10.494,5.31-10.494c2.323-3.109,3.815-3.506,5.565-3.506l7.375,0.125c1.875,0.125,3.226-1.076,4.5-3.25
			c1.273-2.174,5.5-7.375-1.75-7.625s-18.125,7.75-21.875,17.125c-6.625,15-21.625,12.875-23.721,17.471
			C363.23-545.203,372.191-547.829,378.855-548.328z"/>
		<path id="path3027" inkscape:connector-curvature="0" d="M485.578-546.96c1.25,1.375-13.75,34-34.75,39.625
			c-5.875,0.75-5.172,3.234-5.25,5.125c-0.077,1.891-0.375,7,5.875,6c7.25-1.25,21.625-3.475,38-48.475
			c1.125-3.9,3.875-4.025,3.875-4.025c1.88-0.036,11.491-0.625,13.625-2.875c0,0,6.502-5.25,4.627-7.125s-16.895,5.118-17.127,3.125
			c0.375-3.875,5.312-10.494,5.312-10.494c2.322-3.109,3.812-3.506,5.562-3.506l7.377,0.125c1.875,0.125,3.226-1.076,4.5-3.25
			c1.275-2.174,5.5-7.375-1.75-7.625s-18.127,7.75-21.877,17.125c-6.625,15-21.625,12.875-23.72,17.472
			C469.953-543.835,478.916-546.46,485.578-546.96z"/>
		<path id="path3029" inkscape:connector-curvature="0" d="M406.271-540.287c0,0-3.5,0.666-4.302-1.18
			c-0.864-1.402,1.47-3.735,1.47-3.735c9.25-9.916,21.416-8.584,21.416-8.584C420.189-540.453,406.271-540.287,406.271-540.287z
			 M434.521-540.621c-0.75-0.584-1.833,0.834-7.333,0.667c-5.417-0.917-2.5-6.417-2.5-6.417c2.166-6.583,10.929-12.08,9.096-12.413
			c-22.584-4-38.596,18.913-38.596,18.913c-6.167,8.5-0.676,10.182-0.676,10.182s4.759,2.152,12.591-4.098
			c7.084-4.916,10.25-5.666,10.5-5.166s-1.334,3.916-1.334,3.916s-1.75,2.666,0.834,4.916c2.584,2.25,6.25,0,6.25,0
			C428.271-532.704,435.271-540.037,434.521-540.621z"/>
		<path id="path3031" inkscape:connector-curvature="0" d="M459.703-545.952c-5.266,6.73-9.604,5.963-11.468,5.888
			c-1.865-0.073-7.607-0.599-3.628-7.21c2.34-4.688,7.022-4.929,7.022-4.929S465.203-553.283,459.703-545.952z M467.36-540.903
			c-5.89,1.922-4.927-2.523-3.966-5.409c6.37-16.586,23.916-29.205,20.913-31.49c-18.27-3.605-17.958,20.323-20.482,19.482
			c-26.994-6.261-26.033,24.75-26.033,24.75s-0.721,3.484,4.207,4.326c4.927,0.841,13.582-9.375,15.264-8.894
			c-0.241,2.523-1.923,12.861,5.889,6.25c3.845-2.643,11.058-9.495,10.337-9.977C472.77-542.346,467.36-540.903,467.36-540.903z"/>
		<path id="path3033" inkscape:connector-curvature="0" d="M590.757-546.198c-5.266,6.731-9.604,5.962-11.468,5.891
			c-1.865-0.074-7.607-0.602-3.628-7.213c2.341-4.687,7.022-4.928,7.022-4.928S596.259-553.529,590.757-546.198z M598.414-541.149
			c-5.89,1.923-4.927-2.523-3.966-5.408c6.37-16.587,23.916-29.207,20.912-31.491c-18.27-3.605-17.958,20.323-20.481,19.482
			c-26.995-6.261-26.034,24.748-26.034,24.748s-0.721,3.487,4.207,4.327c4.927,0.842,13.582-9.375,15.264-8.891
			c-0.241,2.523-1.923,12.859,5.889,6.25c3.845-2.645,11.058-9.498,10.337-9.977C603.824-542.593,598.414-541.149,598.414-541.149z"
			/>
		<path id="path3035" inkscape:connector-curvature="0" d="M800.55-545.975c-5.266,6.73-9.604,5.962-11.468,5.889
			c-1.866-0.073-7.608-0.599-3.627-7.21c2.34-4.688,7.02-4.929,7.02-4.929S806.05-553.306,800.55-545.975z M808.207-540.927
			c-5.89,1.923-4.927-2.523-3.966-5.409c6.37-16.587,23.916-29.207,20.913-31.491c-18.27-3.606-17.959,20.323-20.481,19.48
			c-26.995-6.261-26.034,24.75-26.034,24.75s-0.719,3.484,4.208,4.327c4.927,0.841,13.581-9.375,15.264-8.895
			c-0.241,2.523-1.923,12.861,5.889,6.25c3.845-2.643,11.058-9.495,10.338-9.977C813.616-542.37,808.207-540.927,808.207-540.927z"
			/>
		<path id="path3037" inkscape:connector-curvature="0" d="M632.859-536.331c0,0,7.279-6.359,7.202-18.311
			c-0.077-1.839-2.68-2.068-2.987-2.911c0.298-1.158,9.566-4.887,10.879-4.137c2.068,1.379-3.294,8.12-2.912,11.491
			c0.537,1.073,9.424-8.58,14.931-10.322c8.427-3.371,6.904,0.975,6.904,0.975s-0.996,3.907-3.984,7.202
			c-1.685,2.528-4.826,2.223-4.826,2.223s-7.893-0.612-11.799,3.141c-2.068,1.609-5.056,7.048-4.903,10.191
			c-0.112,1.672-1.303,9.423-7.816,7.277C628.263-531.121,632.859-536.331,632.859-536.331z"/>
		<path id="path3039" inkscape:connector-curvature="0" d="M510.105-536.141c2.215-4.552,6.224-13.77,5.987-19.135
			c-0.862-1.615,6.763-3.615,9.263-3.24s-4.875,10.75-7.125,14.75c-1.289,2.873-2.5,4.875,0.75,4.625c3.375,0,8-1.625,8.5-0.75
			s-3.375,6.375-10.5,9.625C509.855-527.016,507.891-531.59,510.105-536.141z"/>
		<path id="path3041" inkscape:connector-curvature="0" d="M523.789-566.938c-0.434-1.706,0.927-3.525,3.042-4.062
			c2.113-0.538,4.179,0.41,4.612,2.116c0.434,1.706-0.927,3.525-3.041,4.062C526.289-564.284,524.223-565.232,523.789-566.938z"/>
		<path id="path3043" inkscape:connector-curvature="0" d="M737.339-534.673c0,0,7.875-6.75,6.875-15.626
			c0,0-0.109-3.072-2.869-4.704c-0.625-2.125,11.5-3.375,13.125-3s-5.006,8.454-4.131,9.579s12.875-9.375,17.75-10.25
			s8,1.375,4.25,7.375s-10,13.751,0.648,12.522c4.923-0.68-5.273,8.229-7.648,8.854c-1.319,0.456-10.5,3.625-4.625-8.125
			c2.75-4.25,3-6.125,3-6.125s1.25-6.501-6.5-3.876c-6,2-7.375,5.376-7.375,5.376l-6,10.25c-1.548,2.409-2,3.875-5.125,3.5
			C734.339-529.048,734.339-532.173,737.339-534.673z"/>
		<path id="path3045" inkscape:connector-curvature="0" d="M528.886-534.75c0,0,7.875-6.75,6.875-15.627
			c0,0-0.109-3.072-2.868-4.704c-0.625-2.125,11.5-3.375,13.125-3s-5.007,8.454-4.132,9.579s12.875-9.375,17.75-10.25
			s8,1.375,4.25,7.375s-10,13.752,0.648,12.523c4.923-0.68-5.273,8.229-7.648,8.854c-1.319,0.457-10.5,3.625-4.625-8.125
			c2.75-4.25,3-6.125,3-6.125s1.25-6.502-6.5-3.877c-6,2-7.375,5.377-7.375,5.377l-6,10.25c-1.548,2.41-2,3.875-5.125,3.5
			C525.886-529.125,525.886-532.25,528.886-534.75z"/>
		<path id="path3047" inkscape:connector-curvature="0" d="M676.366-538.931c-7.373-0.08-5.549-6.423-5.549-6.423
			s0.872-3.33,5.074-3.727c6.184-0.873,13.559,0,13.876,1.11C690.082-546.86,686.673-538.852,676.366-538.931z M692.145-556.85
			c-3.964-0.714-15.145,2.775-16.175,1.745c-1.031-1.03,16.175-24.183,12.448-24.42c-2.776-0.317-7.612,1.744-7.612,1.744
			c-3.251,1.427-4.202,3.885-5.074,6.264c-0.872,2.378-12.052,33.617-12.052,33.617c-2.645,7.398,4.202,8.802,4.202,8.802
			s3.236,0.873,8.959-1.823c10.229-5.708,12.765-9.277,16.966-14.431C698.011-550.508,694.841-556.454,692.145-556.85z"/>
	</g>
</g>
<path id="path2207" d="M1290.824,135.183c0.009-41.927,0.009-83.857,0.009-125.787c-58.223-0.009-116.45-0.009-174.68-0.009
	c-0.011,83.85-0.011,167.708-0.02,251.571c58.229,0,116.46,0.007,174.688,0.007C1290.824,219.037,1290.824,177.105,1290.824,135.183
	z M1168.871,161.956c1.905-0.012,3.143-0.062,7.364-0.062c-0.019-1.751-0.043-3.263-0.153-4.738
	c-0.995-13.062-16.603-16.309-17.004-0.485c0.094,2.529,0.032,5.062,0.196,7.595c0.566,7.912,3.449,20.093-0.558,23.104
	c-17.847-26.066-20.729-30.229-34.669-50.596c16.479-24.037,17.029-24.857,37.089-54.146c25.226,19.037,28.224,61.664,28.83,79.327
	c1.728-0.025,2.911-0.066,5.416-0.055c0.062-31.771-6.643-63.854-28.547-87.581c18.496-27.021,19.318-28.195,37.217-54.249
	c87.714,2.02,85.567,58.667,82.46,117.396c-4.109,95.181-13.424,116.133-82.478,115.97c-11.819-17.303-13.732-20.093-18.97-27.621
	c5.363-15.475,10.291-31.802,10.53-48.805c-2.008,0-3.448-0.021-5.433-0.007c-2.085,13.361-5.253,27.476-11.295,39.766
	c-4.532-6.591-5.408-7.845-8.275-12.06c2.757-8.938,6.352-18.919,6.258-27.699c-3.158,0-6.66,0-7.88-0.021 M1176.647,208.324
	c5.863-13.895,6.851-20.318,7.621-31.297c-2.042-0.043-3.104-0.036-4.897-0.036c-0.93,9.255-1.443,18.014-5.924,26.661
	C1174.809,205.635,1175.448,206.572,1176.647,208.324z M1157.198,170.539c-0.034-7.386-3.125-15.619,0.487-22.584
	c5.521-10.011,19.229-4.606,21.057,7.253c0.722,3.684,0.764,5.015,0.866,6.766c1.819-0.021,3.562-0.021,5.827-0.035
	c-0.052-1.554,0.026-5.381-0.627-8.302c-1.363-9.521-7.827-20.693-15.415-26.808c-16.258-12.254-28.692,5.117-26.11,19.257
	c1.982,10.04,8.456,15.682,11.435,30.4c1.151,3.175,2.36,2.916,2.489-0.778C1157.274,173.957,1157.294,172.281,1157.198,170.539z"/>
<path id="path2209" d="M1120.488,10.493c58.229,0,113.266-1.062,171.492-1.071c0,83.857,0.012,167.721,0.021,251.578
	c-58.229,0-114.683-1.058-172.911-1.058C1123.595,190.05,1118.763,71.684,1120.488,10.493z M1239.265,161.998
	c-1.906-0.009-3.142-0.062-7.363-0.062c0.018-1.759,0.041-3.271,0.151-4.746c0.996-13.057,16.604-16.309,17.005-0.479
	c-0.094,2.531-0.034,5.056-0.197,7.589c-0.565,7.912-3.459,20.1,0.56,23.104c17.837-26.06,20.729-30.229,34.659-50.599
	c-16.479-24.034-17.021-24.852-37.089-54.146c-25.22,19.052-28.214,61.673-28.823,79.329c-1.727-0.018-2.909-0.062-5.414-0.046
	c-0.062-31.784,6.634-63.854,28.539-87.581c-18.488-27.028-19.313-28.195-37.209-54.247
	c-135.257,46.721-88.314,165.949,0.018,233.362c11.819-17.312,13.733-20.102,18.971-27.629
	c-5.365-15.479-10.293-31.794-10.532-48.797c2.008,0,3.448-0.021,5.434-0.021c2.085,13.363,5.252,27.487,11.295,39.777
	c4.532-6.604,5.408-7.846,8.275-12.062c-2.765-8.941-6.354-18.916-6.258-27.695c3.159,0,6.661-0.009,7.88-0.021 M1204.088,248.361
	c0-40.715,0.011-43.937-0.007-71.342c1.098,0,4.154-0.01,5.562-0.01c0.682,17.062,4.446,32.734,9.847,48.863L1204.088,248.361z
	 M1231.486,208.365c-5.86-13.895-6.855-20.323-7.631-31.296c2.054-0.042,3.116-0.042,4.909-0.035c0.929,9.256,1.442,18,5.924,26.661
	C1233.324,205.669,1232.688,206.615,1231.486,208.365z M1250.936,170.582c0.033-7.383,3.125-15.633-0.487-22.583
	c-5.521-10.019-19.229-4.607-21.058,7.242c-0.722,3.686-0.763,5.017-0.867,6.773c-1.817-0.025-3.562-0.021-5.824-0.043
	c0.042-1.554-0.036-5.375,0.626-8.294c1.362-9.518,7.828-20.7,15.415-26.812c16.258-12.259,28.686,5.123,26.11,19.253
	c-1.982,10.055-8.456,15.69-11.441,30.409c-1.145,3.168-2.354,2.91-2.481-0.776C1250.861,173.987,1250.842,172.314,1250.936,170.582
	z M1172.991,173.234c0-1.81,0.024-4.431,0.044-7.365c16.778-0.06,44.734-0.172,62.441-0.129c0,2.584,0,4.884,0.011,7.544
	C1217.969,173.063,1190.511,173.082,1172.991,173.234z M1204.088,161.979c0.011-31.208,0.018-88.534,0-135.981
	c10.739,16.335,22.206,31.747,32.748,48.307c-22.646,26.121-25.701,53.396-27.329,87.695
	C1207.299,161.998,1206.466,161.99,1204.088,161.979z"/>
</svg>
